<svg xmlns="http://www.w3.org/2000/svg" width="39.468" height="39.468" viewBox="0 0 39.468 39.468"><defs><style>.a{fill:#404040;}</style></defs><path class="a" d="M19.734,3.555c5.269,0,5.894.02,7.974.115a8.706,8.706,0,0,1,5.933,2.156A8.649,8.649,0,0,1,35.8,11.76c.1,2.08.115,2.705.115,7.974s-.02,5.894-.115,7.974a8.749,8.749,0,0,1-2.156,5.933A8.646,8.646,0,0,1,27.708,35.8c-2.08.1-2.705.115-7.974.115s-5.894-.02-7.974-.115a8.811,8.811,0,0,1-5.933-2.156,8.7,8.7,0,0,1-2.156-5.933c-.1-2.08-.115-2.705-.115-7.974s.02-5.894.115-7.974A8.779,8.779,0,0,1,5.827,5.827,8.668,8.668,0,0,1,11.76,3.671c2.08-.1,2.705-.115,7.974-.115m0-3.555C14.375,0,13.7.023,11.6.118A12.2,12.2,0,0,0,3.312,3.312,12.175,12.175,0,0,0,.118,11.6C.023,13.7,0,14.375,0,19.734s.023,6.032.118,8.137a12.209,12.209,0,0,0,3.194,8.285A12.186,12.186,0,0,0,11.6,39.35c2.1.1,2.778.118,8.137.118s6.032-.023,8.137-.118a12.2,12.2,0,0,0,8.285-3.194,12.171,12.171,0,0,0,3.194-8.285c.1-2.1.118-2.778.118-8.137S39.445,13.7,39.35,11.6a12.2,12.2,0,0,0-3.194-8.285A12.2,12.2,0,0,0,27.871.118C25.766.023,25.094,0,19.734,0Z" transform="translate(0 0)"/><path class="a" d="M15.971,5.838A10.133,10.133,0,1,0,26.1,15.971,10.134,10.134,0,0,0,15.971,5.838Zm0,16.712a6.578,6.578,0,1,1,6.578-6.578A6.578,6.578,0,0,1,15.971,22.55Z" transform="translate(3.763 3.763)"/><circle class="a" cx="2.368" cy="2.368" r="2.368" transform="translate(27.901 6.831)"/></svg>