<svg xmlns="http://www.w3.org/2000/svg" width="37.888" height="37.888" viewBox="0 0 37.888 37.888"><defs><style>.a{fill:#404040;}</style></defs><path class="a" d="M29.348,0H8.541A8.54,8.54,0,0,0,0,8.541V29.348a8.54,8.54,0,0,0,8.541,8.541H29.348a8.54,8.54,0,0,0,8.541-8.541V8.541A8.541,8.541,0,0,0,29.348,0Zm-.483,23.467h0c-2.651,3.05-8.575,6.766-9.924,7.335s-1.149-.362-1.094-.682c.033-.189.18-1.081.18-1.081a2.582,2.582,0,0,0-.041-1.141c-.142-.352-.7-.534-1.113-.624-6.07-.8-10.565-5.045-10.565-10.113,0-5.652,5.667-10.252,12.633-10.252s12.633,4.6,12.633,10.252A9.129,9.129,0,0,1,28.865,23.467Z"/><g transform="translate(10.452 14.428)"><path class="a" d="M16.315,10.517v.93h2.412a.243.243,0,0,1,.242.242v.9a.242.242,0,0,1-.242.242H16.315v.93h2.412a.243.243,0,0,1,.242.242v.9a.24.24,0,0,1-.242.24H15.179a.241.241,0,0,1-.242-.24V9.381a.242.242,0,0,1,.242-.242h3.549a.242.242,0,0,1,.242.242v.9a.242.242,0,0,1-.242.242Z" transform="translate(-1.809 -9.139)"/><path class="a" d="M10.651,14v.9a.24.24,0,0,1-.242.24H6.861a.24.24,0,0,1-.24-.24V9.381a.241.241,0,0,1,.24-.242h.9A.242.242,0,0,1,8,9.381v4.376h2.412A.241.241,0,0,1,10.651,14Z" transform="translate(-6.621 -9.139)"/><path class="a" d="M11.033,9.381v5.513a.24.24,0,0,1-.242.24H9.9a.241.241,0,0,1-.242-.24V9.381A.242.242,0,0,1,9.9,9.139h.9A.243.243,0,0,1,11.033,9.381Z" transform="translate(-4.865 -9.139)"/><path class="a" d="M16.312,9.381v5.513a.24.24,0,0,1-.242.24h-.89a.251.251,0,0,1-.2-.1l-2.526-3.41v3.274a.24.24,0,0,1-.242.24h-.9a.241.241,0,0,1-.242-.24V9.381a.242.242,0,0,1,.242-.242h.89a.259.259,0,0,1,.205.109l2.523,3.407V9.381a.242.242,0,0,1,.242-.242h.9A.242.242,0,0,1,16.312,9.381Z" transform="translate(-4.045 -9.139)"/></g></svg>