<svg xmlns="http://www.w3.org/2000/svg" width="37.555" height="30.514" viewBox="0 0 37.555 30.514"><defs><style>.a{fill:#404040;}</style></defs><path class="a" d="M33.711,9.846c.022.33.022.662.022,1,0,10.182-7.752,21.923-21.923,21.923v-.006A21.808,21.808,0,0,1,0,29.3a15.611,15.611,0,0,0,1.834.111,15.462,15.462,0,0,0,9.569-3.3,7.714,7.714,0,0,1-7.2-5.352,7.708,7.708,0,0,0,3.479-.131A7.706,7.706,0,0,1,1.5,13.074v-.1a7.637,7.637,0,0,0,3.5.964A7.711,7.711,0,0,1,2.613,3.655a21.879,21.879,0,0,0,15.88,8.051,7.712,7.712,0,0,1,13.13-7.028,15.45,15.45,0,0,0,4.893-1.87,7.741,7.741,0,0,1-3.388,4.263,15.477,15.477,0,0,0,4.427-1.214A15.66,15.66,0,0,1,33.711,9.846Z" transform="translate(0 -2.25)"/></svg>