<svg xmlns="http://www.w3.org/2000/svg" width="44" height="30.998" viewBox="0 0 44 30.998"><defs><style>.a{fill:#404040;}</style></defs><g transform="translate(0 -3.546)"><path class="a" d="M43.08,8.386a5.53,5.53,0,0,0-3.89-3.916C35.759,3.546,22,3.546,22,3.546s-13.759,0-17.191.924A5.528,5.528,0,0,0,.92,8.386C0,11.84,0,19.045,0,19.045S0,26.25.92,29.7a5.53,5.53,0,0,0,3.89,3.916c3.43.924,17.189.924,17.189.924s13.759,0,17.191-.924a5.533,5.533,0,0,0,3.89-3.916C44,26.25,44,19.045,44,19.045S44,11.84,43.08,8.386ZM17.5,25.588V12.5L29,19.045Z"/></g></svg>